<svg width="24" height="24" viewBox="0 0 24 24" fill="none" xmlns="http://www.w3.org/2000/svg">
<path d="M12.4283 5.63275C9.14361 5.63275 6.49267 8.28374 6.49267 11.5685C6.49267 14.8533 9.14361 17.5043 12.4283 17.5043C15.7131 17.5043 18.364 14.8533 18.364 11.5685C18.364 8.28374 15.7131 5.63275 12.4283 5.63275ZM12.4283 15.4263C10.3041 15.4263 8.57059 13.6928 8.57059 11.5685C8.57059 9.44427 10.3041 7.71071 12.4283 7.71071C14.5526 7.71071 16.2861 9.44427 16.2861 11.5685C16.2861 13.6928 14.5526 15.4263 12.4283 15.4263ZM18.6071 4.00628C17.8402 4.00628 17.2209 4.62561 17.2209 5.39255C17.2209 6.15948 17.8402 6.77881 18.6071 6.77881C19.374 6.77881 19.9933 6.16237 19.9933 5.39255C19.9936 5.21043 19.9579 5.03007 19.8883 4.86177C19.8187 4.69348 19.7166 4.54057 19.5878 4.4118C19.4591 4.28302 19.3061 4.18092 19.1379 4.11134C18.9696 4.04175 18.7892 4.00605 18.6071 4.00628ZM23.9987 11.5685C23.9987 9.97099 24.0132 8.38793 23.9234 6.79328C23.8337 4.94107 23.4112 3.29723 22.0568 1.94279C20.6995 0.585466 19.0586 0.165824 17.2064 0.0761071C15.6089 -0.0136097 14.0258 0.000860829 12.4312 0.000860829C10.8337 0.000860829 9.25068 -0.0136097 7.65607 0.0761071C5.80389 0.165824 4.16008 0.58836 2.80567 1.94279C1.44837 3.30012 1.02874 4.94107 0.939021 6.79328C0.849306 8.39082 0.863776 9.97389 0.863776 11.5685C0.863776 13.1632 0.849306 14.7491 0.939021 16.3438C1.02874 18.196 1.45126 19.8398 2.80567 21.1943C4.16297 22.5516 5.80389 22.9712 7.65607 23.0609C9.25358 23.1507 10.8366 23.1362 12.4312 23.1362C14.0287 23.1362 15.6118 23.1507 17.2064 23.0609C19.0586 22.9712 20.7024 22.5487 22.0568 21.1943C23.4141 19.8369 23.8337 18.196 23.9234 16.3438C24.016 14.7491 23.9987 13.1661 23.9987 11.5685ZM21.4519 18.3928C21.2407 18.9195 20.986 19.3131 20.5779 19.7183C20.1699 20.1263 19.7792 20.381 19.2525 20.5923C17.7302 21.1972 14.1156 21.0611 12.4283 21.0611C10.7411 21.0611 7.12357 21.1972 5.60131 20.5952C5.07459 20.3839 4.68101 20.1292 4.27584 19.7212C3.86778 19.3131 3.61311 18.9224 3.40184 18.3957C2.79988 16.8705 2.9359 13.2558 2.9359 11.5685C2.9359 9.88128 2.79988 6.26367 3.40184 4.74138C3.61311 4.21465 3.86778 3.82106 4.27584 3.41588C4.6839 3.01071 5.07459 2.75314 5.60131 2.54187C7.12357 1.9399 10.7411 2.07592 12.4283 2.07592C14.1156 2.07592 17.7331 1.9399 19.2554 2.54187C19.7821 2.75314 20.1757 3.00782 20.5808 3.41588C20.9889 3.82395 21.2436 4.21465 21.4548 4.74138C22.0568 6.26367 21.9208 9.88128 21.9208 11.5685C21.9208 13.2558 22.0568 16.8705 21.4519 18.3928Z" fill="#DA5C5C"/>
</svg>
